<svg width="436" height="399" viewBox="0 0 436 399" fill="none" xmlns="http://www.w3.org/2000/svg">
<g opacity="0.12">
<path d="M63.23 156.346C58.3262 145.506 52.4114 143.081 51.21 151.261C49.7959 161.571 54.975 171.794 61.0102 170.445C66.6518 169.183 67.2672 165.159 63.23 156.346Z" fill="#160141"/>
<path d="M377.45 315.241C367.54 313.432 328.389 309.001 313.566 308.013C295.941 306.818 296.555 307.097 294.079 298.49C280.514 248.918 275.746 239.297 271.811 245.729C270.795 247.344 276.601 272.695 282.241 291.144C289.281 313.998 290.567 314.821 320.375 316.9C339.4 318.197 347.004 319.551 354.549 320.639C308.629 330.908 217.213 351.489 217.095 350.96C217.036 350.696 226.379 343.194 237.716 334.135C262.981 314.05 261.231 319.16 253.395 288.433C242.02 244.34 242.21 244.575 221.531 241.427C206.996 239.264 189.796 233.811 180.036 228.359C172.336 224.113 171.46 223.892 170.447 226.756C167.307 235.508 145.447 242.479 132.017 239.097C75.4195 224.41 69.4383 129.281 125.36 132.322C133.311 132.764 135.309 132.456 136.952 130.562C145.153 121.65 215.741 101.562 257.432 92.1003C261.106 91.2788 296.104 87.6165 270.216 83.9672C244.167 80.2151 169.002 96.468 138.096 117.814C135.345 119.679 132.786 107.62 135.124 103.905C139.655 97.0623 184.283 79.171 231.259 71.1646C255.273 67.044 278.074 67.3584 290.417 68.3457C294.357 68.7139 297.749 71.5642 298.636 75.5298L299.434 79.0989C301.74 89.4097 307.627 97.2541 312.219 96.2273C314.318 95.7578 314.845 91.3372 313.175 88.7959C310.084 84.2128 328.513 66.2115 338.616 63.9524C374.958 55.8256 385.868 115.707 372.473 154.374C360.163 189.884 348.167 197.841 310.772 195.099C290.316 193.566 269.786 196.63 215.229 216.325C199.696 222.02 205.939 227.147 226.449 222.144C275.937 209.967 303.302 204.82 301.4 208.021C299.224 211.839 287.699 221.911 279.589 226.917C266.775 234.918 276.576 244.247 287.143 236.055C294.987 229.859 307.744 217.29 312.842 209.904C317.229 203.648 317.695 203.267 320.835 204.369C356.393 217.376 384.97 188.084 389.596 133.612C394.545 75.0416 348.988 34.567 313.824 66.4428L307.626 71.9929L305.207 67.9531C301.22 61.2108 294.396 57.1849 285.742 56.0664C244.155 51.2086 158.597 69.647 126.075 97.3231C121.681 101.082 119.714 107.073 120.985 112.758C121.044 113.022 123.645 124.655 123.557 124.258L119.677 124.154C64.6344 122.583 51.727 203.475 101.455 238.575C121.422 252.709 146.822 253.553 168.359 240.825L175.771 236.392L181.076 239.786C188.983 244.958 207.714 250.485 221.356 251.737L233.569 252.754C237.673 264.328 237.42 262.58 248.25 314.707C240.346 320.638 196.854 352.85 187.723 358.223C177.966 363.874 182.8 370.705 190.731 369.209C201.447 367.229 235.749 359.836 275.502 350.947C332.049 338.302 383.309 328.505 383.178 328.534C388.836 327.963 388.951 317.388 377.45 315.241Z" fill="#160141"/>
<path d="M181.247 273.198C178.254 267.205 169.979 270.86 172.477 277.102C175.004 283.477 171.521 294.388 163.359 291.772C155.095 289.317 152.329 276.333 166.994 272.915C168.568 272.563 170.651 271.403 171.553 270.508C175.901 265.926 162.013 265.423 155.578 269.916C146.655 276.214 148.559 293.971 158.384 296.632C172.719 300.366 187.292 285.448 181.247 273.198Z" fill="#160141"/>
<path d="M135.015 146.541C112.726 136.812 87.8146 152.932 95.9291 184.29C104.293 216.149 130.04 231.489 158.368 221.406C168.569 217.737 168.772 217.414 163.157 207.705C136.456 160.376 143.574 150.318 135.015 146.541ZM145.735 216.042C127.408 214.172 116.305 203.33 110.568 181.989C104.27 158.135 107.599 149.618 121.643 153.279L128.65 155.043L131.248 165.427C134.111 177.002 142.676 197.433 149.374 208.288C154.592 216.838 154.621 216.97 145.735 216.042Z" fill="#160141"/>
<path d="M47.8551 121.476C55.2169 124.827 57.7247 119.408 54.8573 106.586C50.8371 88.6078 43.8839 80.3078 39.6778 88.6048C37.4879 92.9809 44.1743 119.801 47.8551 121.476Z" fill="#160141"/>
<path d="M314.977 42.0326C324.2 38.3046 327.09 23.5008 319.36 19.122C314.626 16.4331 313.097 17.6079 315.139 22.4257C317.43 27.743 313.913 37.2737 306.906 35.5094C299.768 33.7744 296.317 20.8049 311.376 17.2987C314.524 16.5946 315.291 14.48 312.765 13.6569C304.705 10.8789 293.416 16.457 291.46 26.1939C289.187 36.9734 300.582 47.8888 314.977 42.0326Z" fill="#160141"/>
<path d="M56.8177 133.212C57.7045 137.178 71.9161 133.583 87.0782 125.613C101.017 118.332 85.7836 116.741 70.5754 123.89C60.1163 128.866 56.4038 131.361 56.8177 133.212Z" fill="#160141"/>
<path d="M17.3442 138.43C12.464 140.632 12.4324 144.803 17.4216 144.937C23.3883 145.129 46.5183 138.291 48.4364 135.78C52.6794 130.112 31.0667 132.031 17.3442 138.43Z" fill="#160141"/>
<path d="M373.164 241.247C379.292 241.543 380.537 238.488 378.379 228.838C375.571 216.28 374.281 214.209 369.821 215.207C367.197 215.793 366.193 216.851 366.01 219.113C365.845 227.616 370.101 241.1 373.164 241.247Z" fill="#160141"/>
<path d="M329.461 181.34C363.256 190.161 385.179 114.471 356.64 87.2633C348.946 79.9619 336.877 78.3578 328.796 83.4961C321.574 88.1646 310.338 106.917 312.799 110.53C315.54 114.776 318.327 145.105 317.123 157.588C315.265 175.77 316.425 177.87 329.461 181.34ZM326.645 166.285C327.839 155.608 326.34 131.654 323.709 119.889C319.334 100.325 335.248 79.6937 348.138 88.054C360.356 95.8707 359.682 140.299 347.129 162.399C339.713 175.439 325.323 178.24 326.645 166.285Z" fill="#160141"/>
<path d="M375.955 272.823C374.096 285.453 381.497 296.984 389.247 293.447C395.147 290.878 394.288 281.493 387.183 271.284C383.682 266.099 376.741 267.096 375.955 272.823Z" fill="#160141"/>
<path d="M413.864 246.44C407.957 246.512 387.794 250.605 385.276 252.278C376.132 258.209 400.261 258.921 412.861 253.049C417.975 250.657 418.663 246.339 413.864 246.44Z" fill="#160141"/>
<path d="M347.18 259.965C345.025 261.418 345.968 264.4 348.667 264.768C355.526 265.871 374.239 259.605 373.559 256.565C373.04 253.627 352.683 256.236 347.18 259.965Z" fill="#160141"/>
<path d="M264.228 111.401C261.271 108.036 229.514 112.64 205.423 120.109C185.31 126.272 166.779 134.58 158.19 140.526C150.096 146.222 153.467 151.437 162.034 147.855C173.995 142.821 220.746 127.647 234.653 124.538C261.257 118.45 267.785 115.602 264.228 111.401Z" fill="#160141"/>
</g>
</svg>
