<svg width="168" height="159" viewBox="0 0 168 159" fill="none" xmlns="http://www.w3.org/2000/svg">
<g id="Group 5">
<path id="Vector" d="M53.197 41.8673C55.0874 42.6724 55.1633 42.7597 54.7854 44.1725C51.0688 58.7593 77.6804 69.8695 87.4889 57.8243C89.5261 55.3412 91.1137 54.7545 93.1644 55.8335C93.9752 56.2601 94.1918 56.6584 93.9379 57.141C89.1917 66.1618 104.74 82.2108 115.733 79.6048C119.614 78.7084 124.933 76.0083 126.176 74.3398L127.293 72.7948L130.177 74.0274C135.228 76.1163 135.278 75.9057 132.837 64.5728C128.579 44.8893 122.657 34.6163 116.026 35.2985C114.02 35.523 114.183 35.5611 109.513 43.6267C109.22 44.1836 109.443 44.9172 110.033 45.417C112.649 47.5045 116.983 47.3678 114.953 45.2091C114.099 44.2858 114.109 44.1493 115.704 41.8126C118.048 38.4005 118.44 38.4648 120.201 42.7566C124.247 52.6589 127.191 58.5214 127.632 62.5451C127.766 63.5636 127.66 63.6499 127.398 62.9906C127.04 62.2811 123.981 60.3399 123.786 60.7111C123.747 60.7854 123.926 62.0647 124.21 63.4936C126.847 77.347 106.156 82.5292 100.29 69.489C95.8688 59.7211 108.427 51.8245 119.301 57.5458C122.306 59.1266 123.045 58.9943 121.5 57.1859C117.215 52.135 105.908 50.5938 98.7033 54.1025L96.3241 55.2681L92.9465 53.5859C91.0193 52.6193 89.6471 51.7551 89.7643 51.5323C90.155 50.7899 88.5321 48.0874 87.3398 47.4601C85.8136 46.6571 85.6182 47.0283 86.2178 49.4767C88.7608 60.1524 70.6574 64.468 62.8295 55.0407C52.9926 43.1818 70.776 32.2989 82.7341 42.9039C86.1847 45.9518 86.8045 46.2779 86.8354 45.0618C87.0408 36.6854 67.6491 32.4549 59.207 39.0097C56.9272 40.7964 56.7926 40.8204 55.1711 39.9672C53.788 39.2395 53.6082 39.0027 54.1874 38.5964C54.5735 38.3256 57.5736 35.4012 60.9707 32.0695C71.6177 21.5556 80.7685 16.0845 79.9077 20.8455C79.3512 23.8707 76.7511 29.0437 75.988 28.6423C73.9849 27.5883 72.6959 30.0385 74.5513 31.4887C78.4898 34.6511 85.0942 25.8022 82.5443 20.8108C79.6932 15.2344 72.6158 15.4922 65.6548 21.5465C63.9628 23.0263 60.9281 25.5533 58.9086 27.1925C48.5119 35.6104 47.1636 39.2143 53.197 41.8673Z" fill="#E8E6EC"/>
<path id="Vector_2" d="M130.567 125.139C130.504 114.725 127.479 116.309 127.519 122.019C127.527 125.246 127.386 125.977 126.863 125.465C118.289 116.878 94.867 111.048 77.608 113.296L69.3721 114.366C71.0586 110.466 72.0485 108.238 72.435 106.924C72.7911 105.785 70.8013 104.358 69.9573 105.384C68.9485 106.607 67.7071 109.082 65.6562 112.98L64.8613 110.903C60.9347 100.542 40.4302 87.4308 17.9537 80.9611C14.1965 79.8848 13.8253 80.5901 21.9795 73.078C33.0362 62.827 37.5466 57.3792 39.6942 55.3808C40.6617 54.4679 56.3744 62.4507 61.7133 66.5395C66.7096 70.3533 76.6249 81.021 77.5692 83.5086C77.8681 84.3295 77.2123 86.7336 75.1042 92.5921C71.9518 101.361 72.3879 100.88 73.1378 101.654C74.5055 102.989 77.4643 95.3981 81.5905 86.051L89.6743 85.8487C108.795 85.3863 121.262 92.941 123.727 93.8114L124.885 99.0183C127.477 110.526 126.916 114.022 128.76 112.717C129.445 112.225 127.998 94.2575 127.151 92.6268C125.541 89.5521 104.774 77.8671 84.5697 81.3144C79.2785 82.2276 79.7665 82.3422 78.3884 80.1003C69.5068 65.6157 42.0418 47.5627 37.1193 52.9833C34.106 56.28 19.1715 67.9982 11.3788 76.7908C9.39157 79.0631 8.99239 79.7063 9.08731 80.799C9.19948 82.0904 9.49436 82.3404 11.6537 83.0973C12.5708 83.4376 12.577 83.7727 11.5046 86.6212C10.4017 89.6433 10.457 91.8527 11.6452 91.9091C12.4692 91.9634 11.927 92.5314 10.7538 92.9094C7.96486 93.812 7.99506 98.6152 10.7917 99.8971C12.023 100.45 12.2593 100.811 12.2002 101.965C12.1148 103.864 12.9429 104.489 15.5124 104.466C18.1968 104.457 22.9216 104.62 29.8225 106.782C36.7234 108.943 55.9102 120.508 57.4945 122.242C58.4525 123.315 59.0335 123.715 59.4283 123.544C59.7362 123.421 61.5139 123.977 63.4325 124.845C69.8951 127.723 80.3318 132.077 85.1274 133.842C92.2731 136.464 104.66 143.36 108.204 146.694C112.166 150.391 114.28 149.844 112.567 145.577C111.958 144.072 111.969 143.935 112.73 144.573C118.732 149.484 120.929 148.318 119.861 140.741C119.386 137.363 119.327 137.474 121.855 138.804C124.859 140.385 125.185 139.419 123.844 133.404C122.621 127.973 122.64 127.936 125.928 130.946C129.882 134.543 130.619 133.604 130.567 125.139ZM30.4325 100.182C24.4468 97.5544 17.9529 96.9343 17.3502 96.8067C16.4418 96.5657 16.132 95.8813 16.9736 95.0918C17.4769 94.5982 18.0865 94.0184 18.2904 93.7465C19.6876 92.0168 36.8039 98.6051 43.9073 103.622C50.8872 108.527 51.7693 109.513 57.2703 114.682C46.6135 108.317 36.8192 102.974 30.4325 100.182ZM63.2223 114.828C41.9783 96.872 32.633 91.7181 17.4404 89.4599C15.3914 89.1876 13.6784 88.8551 13.6698 88.7558C13.633 88.5942 14.4406 86.3648 15.2201 84.0731C27.9618 87.9805 38.2689 90.844 49.0142 97.9669C52.2246 100.083 56.0999 103.828 58.7221 107.293C63.1992 113.251 65.0669 116.414 63.2223 114.828ZM79.716 117.391C97.595 115.47 108.321 117.653 117.921 125.216C118.92 125.979 121.034 132.494 120.361 132.615C120.227 132.639 119.284 132 118.257 131.175C110.139 124.961 104.771 122.895 90.6714 120.643C86.9572 120.063 83.0996 119.408 82.1045 119.217C78.0088 118.436 66.8657 118.783 79.716 117.391ZM113.652 138.422C108.331 134.532 101.623 131.193 95.0951 129.132C90.1823 127.59 75.3899 122.604 75.117 122.081C74.9566 121.807 83.1354 122.698 87.2638 123.069C95.6355 123.824 104.394 127.199 113.702 133.234C115.703 134.524 115.891 134.86 116.64 137.719C117.63 141.51 117.784 141.449 113.652 138.422Z" fill="#E8E6EC"/>
</g>
</svg>
