<svg width="131" height="155" viewBox="0 0 131 155" fill="none" xmlns="http://www.w3.org/2000/svg">
<path opacity="0.1" fill-rule="evenodd" clip-rule="evenodd" d="M68.2751 2.22945C43.299 -2.22719 16.3521 4.37635 5.66116 31.3706C-2.25673 51.523 -2.12873 51.7278 21.952 54.7507C42.2713 57.2782 40.9457 57.8634 44.8522 45.1647C48.1774 34.3557 53.5492 29.3062 64.357 27.9976C88.3213 25.1927 95.9614 54.3511 93.5896 62.061C90.9852 70.5268 82.6365 72.8401 58.9628 71.5973C39.6028 70.606 31.8706 75.2603 26.22 91.1458C24.5806 95.8541 22.8078 99.4458 22.0114 99.8627C18.4243 101.903 27.0286 107.446 37.29 109.776C68.0974 116.688 67.5917 116.781 68.9577 106.445C69.7947 100 70.7712 99.3076 78.5036 99.6178C97.1658 100.395 109.671 94.8093 119.554 81.3015C145.245 46.5104 122.902 12.0843 68.2751 2.22945ZM95.0477 15.4301C113.902 23.9608 125.449 51.5906 116.769 67.7026C108.747 82.6101 95.8052 89.3025 74.0326 89.6374C63.4864 89.7854 59.2249 92.777 56.3008 101.972L54.7195 107.112C43.8012 104.746 43.1035 104.531 35.8479 103.292C43.9285 81.3692 42.8823 78.5651 77.6895 78.6822C99.5202 78.7788 108.322 65.6831 100.49 44.9053C87.9259 11.5843 28.8054 12.9236 29.6376 46.5241C29.6318 48.0944 29.4982 49.46 29.2773 49.5575C28.9459 49.7038 16.9343 48.408 16.0623 48.1398C15.9751 48.1129 18.2249 38.6279 18.6783 35.2923C22.4507 6.58339 60.9902 0.153841 95.0477 15.4301ZM27.7498 116.273C10.1457 117.642 4.41935 134.084 18.2157 143.54C45.7212 162.427 78.0924 155.259 66.1445 132.966C62.6677 126.27 37.7379 115.457 27.7498 116.273ZM48.6798 127.676C55.3773 130.73 59.9936 137.445 58.5984 141.981C56.0173 150.371 31.018 147.231 24.5877 137.723C21.4481 133.034 24.9128 116.807 48.6798 127.676Z" fill="#160141"/>
</svg>
